<?xml version="1.0" encoding="UTF-8"?>
<svg version="1.1" xmlns="http://www.w3.org/2000/svg" viewBox="118 404 1044 472" preserveAspectRatio="xMidYMid meet">
<path d="M0 0 C1.70149457 -0.00239071 3.40298809 -0.00565646 5.10447949 -0.0097166 C9.79153653 -0.01834874 14.47851364 -0.0145051 19.16557193 -0.00866088 C24.26045412 -0.00449631 29.35532157 -0.01188927 34.4502002 -0.01781338 C43.38350833 -0.02658661 52.31679354 -0.02788351 61.2501049 -0.02431011 C74.53418485 -0.01901034 87.81824255 -0.02509108 101.10232007 -0.03339304 C125.51539727 -0.04823018 149.92846404 -0.05048126 174.3415439 -0.04807267 C177.8007752 -0.04773422 181.2600065 -0.04741212 184.7192378 -0.04710698 C185.74986259 -0.04701542 185.74986259 -0.04701542 186.80130807 -0.046922 C202.02665023 -0.04565022 217.25199098 -0.04825128 232.47733272 -0.05163305 C235.95359591 -0.05240379 239.42985911 -0.05314852 242.9061223 -0.05389806 C244.30128147 -0.05419975 245.69644064 -0.05450164 247.09159981 -0.05480371 C248.12893091 -0.05502822 248.12893091 -0.05502822 249.1872182 -0.05525728 C250.58603566 -0.05556081 251.98485312 -0.05586549 253.38367059 -0.05617132 C293.07689157 -0.06484497 332.77011131 -0.0694878 372.46333313 -0.06522369 C373.19839581 -0.06514564 373.93345849 -0.06506758 374.69079579 -0.06498716 C382.88758915 -0.06411435 391.08438249 -0.06318509 399.28117584 -0.06223653 C400.02123048 -0.06215102 400.76128512 -0.06206551 401.52376565 -0.06197741 C407.67313861 -0.06126659 407.67313861 -0.06126659 410.50229037 -0.06093518 C457.84230976 -0.05539897 505.18230965 -0.06294252 552.52232552 -0.08170605 C564.45106629 -0.08642822 576.37980708 -0.09110871 588.30854797 -0.09554291 C589.0430366 -0.09581623 589.77752522 -0.09608955 590.53427107 -0.09637116 C613.16918047 -0.10474155 635.80408824 -0.10942203 658.43899918 -0.11025047 C659.14956492 -0.11027684 659.86013066 -0.11030321 660.5922287 -0.11033037 C676.19026331 -0.11087114 691.7882978 -0.11049874 707.38633237 -0.10929066 C712.96745257 -0.10886503 718.54857279 -0.1084999 724.129693 -0.10816122 C725.51814335 -0.10807591 726.9065937 -0.10798698 728.29504404 -0.1078944 C750.42351844 -0.10644532 772.55197959 -0.11357381 794.68045081 -0.12489836 C817.58488948 -0.13654412 840.48930792 -0.13711594 863.39374839 -0.12505493 C876.60244249 -0.11841126 889.8110743 -0.12009207 903.01976345 -0.13364345 C911.83679001 -0.14186173 920.6537697 -0.13922464 929.47079241 -0.12766818 C934.49836672 -0.12138571 939.5258191 -0.11987784 944.55338655 -0.13153151 C949.12695428 -0.14203557 953.70029628 -0.1387382 958.27385177 -0.12442699 C959.91820756 -0.12169811 961.56258132 -0.12399426 963.2069202 -0.13193413 C972.81008167 -0.17513974 981.78510559 -0.05895199 990.33238411 4.87947559 C998.35669075 13.59157994 998.23595785 22.42831803 998.16153145 33.66986561 C998.16801314 35.45242886 998.17666943 37.23498529 998.18730575 39.01752859 C998.21008632 43.90352187 998.20174715 48.78903804 998.1881665 53.67504728 C998.17890637 58.94919845 998.19840606 64.22325529 998.21414375 69.49738026 C998.24022806 79.82478661 998.23914371 90.15201886 998.22810557 100.47944563 C998.21954616 108.87351784 998.22037872 117.26753969 998.22790146 125.66161251 C998.22948379 127.45388664 998.22948379 127.45388664 998.23109809 129.28236832 C998.23326902 131.70972122 998.2354558 134.1370741 998.23765824 136.56442697 C998.25708748 159.32500046 998.24509075 182.0854763 998.22287229 204.84604181 C998.20462228 224.37214855 998.2155241 243.8980662 998.24717903 263.42415333 C998.2839413 286.10192731 998.30096345 308.77958319 998.28776675 331.45738703 C998.28642566 333.87609897 998.28511668 336.29481093 998.28384018 338.71352291 C998.28320951 339.90355654 998.28257885 341.09359016 998.28192907 342.31968541 C998.27890196 350.70236749 998.29016158 359.08496046 998.30709076 367.46762371 C998.32741506 377.68531954 998.32654688 387.90274852 998.29845836 398.1204304 C998.28468524 403.33290371 998.28050301 408.54491116 998.30240822 413.75736713 C998.32220552 418.53131776 998.3141864 423.3043924 998.28421388 428.07828254 C998.27821774 429.80293983 998.28228738 431.52766849 998.29757711 433.25226843 C998.37607773 442.80480874 998.08528311 450.64896407 991.51988411 458.25447559 C982.93181637 465.72236059 971.72584082 464.54000482 961.03976822 464.50895119 C959.33827365 464.5113419 957.63678013 464.51460764 955.93528873 464.51866779 C951.24823169 464.52729993 946.56125458 464.52345629 941.87419629 464.51761206 C936.7793141 464.5134475 931.68444665 464.52084045 926.58956802 464.52676457 C917.65625989 464.5355378 908.72297468 464.5368347 899.78966331 464.5332613 C886.50558337 464.52796153 873.22152567 464.53404227 859.93744815 464.54234423 C835.52437094 464.55718137 811.11130418 464.55943244 786.69822432 464.55702385 C783.23899302 464.55668541 779.77976172 464.55636331 776.32053041 464.55605817 C775.28990563 464.5559666 775.28990563 464.5559666 774.23846015 464.55587319 C759.01311799 464.5546014 743.78777724 464.55720247 728.5624355 464.56058424 C725.08617231 464.56135498 721.60990911 464.5620997 718.13364591 464.56284925 C716.73848675 464.56315094 715.34332758 464.56345282 713.94816841 464.56375489 C712.91083731 464.56397941 712.91083731 464.56397941 711.85255002 464.56420847 C710.45373256 464.564512 709.05491509 464.56481668 707.65609763 464.56512251 C667.96287665 464.57379616 628.2696569 464.57843898 588.57643509 464.57417488 C587.84137241 464.57409682 587.10630973 464.57401877 586.34897243 464.57393835 C578.15217907 464.57306554 569.95538573 464.57213628 561.75859238 464.57118771 C561.01853774 464.5711022 560.2784831 464.57101669 559.51600256 464.57092859 C553.36662958 464.57021778 553.36662958 464.57021778 550.53747785 464.56988637 C503.19745846 464.56435015 455.85745857 464.57189371 408.5174427 464.59065723 C396.58870192 464.5953794 384.65996113 464.6000599 372.73122025 464.60449409 C371.99673162 464.60476742 371.262243 464.60504074 370.50549715 464.60532234 C347.87058775 464.61369274 325.23567998 464.61837322 302.60076904 464.61920166 C301.8902033 464.61922803 301.17963755 464.61925439 300.44753952 464.61928156 C284.8495049 464.61982232 269.25147042 464.61944992 253.65343585 464.61824184 C248.07231565 464.61781621 242.49119543 464.61745109 236.91007522 464.6171124 C235.52162487 464.6170271 234.13317452 464.61693817 232.74472417 464.61684558 C210.61624978 464.61539651 188.48778863 464.622525 166.35931741 464.63384954 C143.45487873 464.64549531 120.5504603 464.64606713 97.64601983 464.63400612 C84.43732573 464.62736245 71.22869392 464.62904326 58.02000476 464.64259463 C49.20297821 464.65081292 40.38599852 464.64817583 31.56897581 464.63661937 C26.5414015 464.6303369 21.51394912 464.62882903 16.48638166 464.6404827 C11.91281394 464.65098676 7.33947194 464.64768939 2.76591644 464.63337817 C1.12156066 464.6306493 -0.5228131 464.63294544 -2.16715198 464.64088532 C-11.77031345 464.68409092 -20.74533737 464.56790318 -29.29261589 459.62947559 C-37.31692253 450.91737125 -37.19618963 442.08063316 -37.12176323 430.83908558 C-37.12824493 429.05652233 -37.13690121 427.27396589 -37.14753753 425.49142259 C-37.1703181 420.60542932 -37.16197893 415.71991315 -37.14839828 410.83390391 C-37.13913815 405.55975274 -37.15863784 400.28569589 -37.17437553 395.01157093 C-37.20045984 384.68416458 -37.19937549 374.35693232 -37.18833735 364.02950556 C-37.17977794 355.63543335 -37.1806105 347.2414115 -37.18813324 338.84733868 C-37.18918813 337.65248926 -37.19024302 336.45763984 -37.19132987 335.22658287 C-37.1935008 332.79922997 -37.19568758 330.37187709 -37.19789002 327.94452422 C-37.21731926 305.18395072 -37.20532253 282.42347489 -37.18310408 259.66290938 C-37.16485406 240.13680264 -37.17575588 220.61088499 -37.20741081 201.08479786 C-37.24417308 178.40702388 -37.26119523 155.729368 -37.24799854 133.05156416 C-37.24665744 130.63285221 -37.24534846 128.21414025 -37.24407196 125.79542828 C-37.24344129 124.60539465 -37.24281063 123.41536103 -37.24216085 122.18926578 C-37.23913374 113.8065837 -37.25039336 105.42399072 -37.26732254 97.04132748 C-37.28764684 86.82363165 -37.28677866 76.60620267 -37.25869014 66.38852078 C-37.24491702 61.17604748 -37.24073479 55.96404003 -37.26264 50.75158405 C-37.2824373 45.97763343 -37.27441818 41.20455879 -37.24444566 36.43066864 C-37.23844952 34.70601135 -37.24251916 32.9812827 -37.25780889 31.25668276 C-37.33630951 21.70414244 -37.04551489 13.85998711 -30.48011589 6.25447559 C-21.89204815 -1.2134094 -10.6860726 -0.03105363 0 0 Z " fill="#AFB3B2" transform="translate(159.48011589050293,407.7455244064331)"/>
<path d="M0 0 C1.13187744 0.00021149 2.26375488 0.00042297 3.42993164 0.00064087 C35.43853235 0.05963233 67.12704134 2.91455372 98.5 9.375 C99.68851563 9.61557129 100.87703125 9.85614258 102.1015625 10.10400391 C155.87783528 21.20035531 210.47022193 42.73729124 251.26171875 80.32421875 C253.36296619 82.24944546 255.51319306 84.09578303 257.6875 85.9375 C281.69890557 107.03698561 299.10039895 139.43151078 301.5 171.375 C303.2079664 208.24028265 292.23261484 240.74934561 267.25 268.3125 C266.42242188 269.19292969 265.59484375 270.07335937 264.7421875 270.98046875 C262.871071 272.97871686 261.11006894 275.01009164 259.375 277.125 C256.09205909 280.9686636 252.39274756 284.16136105 248.5 287.375 C247.97760742 287.80973633 247.45521484 288.24447266 246.91699219 288.69238281 C219.61120769 311.33208609 188.52744278 327.46218018 155.22119141 339.39501953 C152.81006926 340.26333501 150.40960588 341.15454393 148.01171875 342.05859375 C117.11867567 353.56855502 83.42310154 359.32537232 50.6875 362.5625 C49.37845703 362.69232269 49.37845703 362.69232269 48.04296875 362.82476807 C32.03228907 364.35905329 16.07802126 364.75645825 0 364.75 C-1.62574448 364.75258316 -1.62574448 364.75258316 -3.28433228 364.75521851 C-24.4345722 364.75140393 -45.58167218 363.59956437 -66.5 360.375 C-68.25514375 360.12974572 -70.0103583 359.88499782 -71.765625 359.640625 C-134.83538868 350.55146669 -200.74155744 328.21277114 -248.26171875 284.42578125 C-250.36296619 282.50055454 -252.51319306 280.65421697 -254.6875 278.8125 C-277.54813289 258.72423015 -295.71666976 226.15356114 -298.35498047 195.68896484 C-299.26666392 181.14193501 -299.56564674 166.47361369 -295.5 152.375 C-295.1596875 151.16328125 -294.819375 149.9515625 -294.46875 148.703125 C-286.04418637 121.26637048 -267.7515222 95.45203227 -245.5 77.375 C-244.9848584 76.94751465 -244.4697168 76.5200293 -243.93896484 76.07958984 C-194.61285572 35.17062199 -131.88329687 13.67290432 -69.06640625 4.74072266 C-66.88517567 4.429889 -64.70815608 4.10114724 -62.53125 3.76171875 C-41.84415019 0.7099056 -20.88247136 -0.03663932 0 0 Z " fill="#FEFEFE" transform="translate(638.5,457.625)"/>
<path d="M0 0 C1.70149457 -0.00239071 3.40298809 -0.00565646 5.10447949 -0.0097166 C9.79153653 -0.01834874 14.47851364 -0.0145051 19.16557193 -0.00866088 C24.26045412 -0.00449631 29.35532157 -0.01188927 34.4502002 -0.01781338 C43.38350833 -0.02658661 52.31679354 -0.02788351 61.2501049 -0.02431011 C74.53418485 -0.01901034 87.81824255 -0.02509108 101.10232007 -0.03339304 C125.51539727 -0.04823018 149.92846404 -0.05048126 174.3415439 -0.04807267 C177.8007752 -0.04773422 181.2600065 -0.04741212 184.7192378 -0.04710698 C185.74986259 -0.04701542 185.74986259 -0.04701542 186.80130807 -0.046922 C202.02665023 -0.04565022 217.25199098 -0.04825128 232.47733272 -0.05163305 C235.95359591 -0.05240379 239.42985911 -0.05314852 242.9061223 -0.05389806 C244.30128147 -0.05419975 245.69644064 -0.05450164 247.09159981 -0.05480371 C248.12893091 -0.05502822 248.12893091 -0.05502822 249.1872182 -0.05525728 C250.58603566 -0.05556081 251.98485312 -0.05586549 253.38367059 -0.05617132 C293.07689157 -0.06484497 332.77011131 -0.0694878 372.46333313 -0.06522369 C373.19839581 -0.06514564 373.93345849 -0.06506758 374.69079579 -0.06498716 C382.88758915 -0.06411435 391.08438249 -0.06318509 399.28117584 -0.06223653 C400.02123048 -0.06215102 400.76128512 -0.06206551 401.52376565 -0.06197741 C407.67313861 -0.06126659 407.67313861 -0.06126659 410.50229037 -0.06093518 C457.84230976 -0.05539897 505.18230965 -0.06294252 552.52232552 -0.08170605 C564.45106629 -0.08642822 576.37980708 -0.09110871 588.30854797 -0.09554291 C589.0430366 -0.09581623 589.77752522 -0.09608955 590.53427107 -0.09637116 C613.16918047 -0.10474155 635.80408824 -0.10942203 658.43899918 -0.11025047 C659.14956492 -0.11027684 659.86013066 -0.11030321 660.5922287 -0.11033037 C676.19026331 -0.11087114 691.7882978 -0.11049874 707.38633237 -0.10929066 C712.96745257 -0.10886503 718.54857279 -0.1084999 724.129693 -0.10816122 C725.51814335 -0.10807591 726.9065937 -0.10798698 728.29504404 -0.1078944 C750.42351844 -0.10644532 772.55197959 -0.11357381 794.68045081 -0.12489836 C817.58488948 -0.13654412 840.48930792 -0.13711594 863.39374839 -0.12505493 C876.60244249 -0.11841126 889.8110743 -0.12009207 903.01976345 -0.13364345 C911.83679001 -0.14186173 920.6537697 -0.13922464 929.47079241 -0.12766818 C934.49836672 -0.12138571 939.5258191 -0.11987784 944.55338655 -0.13153151 C949.12695428 -0.14203557 953.70029628 -0.1387382 958.27385177 -0.12442699 C959.91820756 -0.12169811 961.56258132 -0.12399426 963.2069202 -0.13193413 C972.81008167 -0.17513974 981.78510559 -0.05895199 990.33238411 4.87947559 C998.35669075 13.59157994 998.23595785 22.42831803 998.16153145 33.66986561 C998.16801314 35.45242886 998.17666943 37.23498529 998.18730575 39.01752859 C998.21008632 43.90352187 998.20174715 48.78903804 998.1881665 53.67504728 C998.17890637 58.94919845 998.19840606 64.22325529 998.21414375 69.49738026 C998.24022806 79.82478661 998.23914371 90.15201886 998.22810557 100.47944563 C998.21954616 108.87351784 998.22037872 117.26753969 998.22790146 125.66161251 C998.22948379 127.45388664 998.22948379 127.45388664 998.23109809 129.28236832 C998.23326902 131.70972122 998.2354558 134.1370741 998.23765824 136.56442697 C998.25708748 159.32500046 998.24509075 182.0854763 998.22287229 204.84604181 C998.20462228 224.37214855 998.2155241 243.8980662 998.24717903 263.42415333 C998.2839413 286.10192731 998.30096345 308.77958319 998.28776675 331.45738703 C998.28642566 333.87609897 998.28511668 336.29481093 998.28384018 338.71352291 C998.28320951 339.90355654 998.28257885 341.09359016 998.28192907 342.31968541 C998.27890196 350.70236749 998.29016158 359.08496046 998.30709076 367.46762371 C998.32741506 377.68531954 998.32654688 387.90274852 998.29845836 398.1204304 C998.28468524 403.33290371 998.28050301 408.54491116 998.30240822 413.75736713 C998.32220552 418.53131776 998.3141864 423.3043924 998.28421388 428.07828254 C998.27821774 429.80293983 998.28228738 431.52766849 998.29757711 433.25226843 C998.37607773 442.80480874 998.08528311 450.64896407 991.51988411 458.25447559 C982.93181637 465.72236059 971.72584082 464.54000482 961.03976822 464.50895119 C959.33827365 464.5113419 957.63678013 464.51460764 955.93528873 464.51866779 C951.24823169 464.52729993 946.56125458 464.52345629 941.87419629 464.51761206 C936.7793141 464.5134475 931.68444665 464.52084045 926.58956802 464.52676457 C917.65625989 464.5355378 908.72297468 464.5368347 899.78966331 464.5332613 C886.50558337 464.52796153 873.22152567 464.53404227 859.93744815 464.54234423 C835.52437094 464.55718137 811.11130418 464.55943244 786.69822432 464.55702385 C783.23899302 464.55668541 779.77976172 464.55636331 776.32053041 464.55605817 C775.28990563 464.5559666 775.28990563 464.5559666 774.23846015 464.55587319 C759.01311799 464.5546014 743.78777724 464.55720247 728.5624355 464.56058424 C725.08617231 464.56135498 721.60990911 464.5620997 718.13364591 464.56284925 C716.73848675 464.56315094 715.34332758 464.56345282 713.94816841 464.56375489 C712.91083731 464.56397941 712.91083731 464.56397941 711.85255002 464.56420847 C710.45373256 464.564512 709.05491509 464.56481668 707.65609763 464.56512251 C667.96287665 464.57379616 628.2696569 464.57843898 588.57643509 464.57417488 C587.84137241 464.57409682 587.10630973 464.57401877 586.34897243 464.57393835 C578.15217907 464.57306554 569.95538573 464.57213628 561.75859238 464.57118771 C561.01853774 464.5711022 560.2784831 464.57101669 559.51600256 464.57092859 C553.36662958 464.57021778 553.36662958 464.57021778 550.53747785 464.56988637 C503.19745846 464.56435015 455.85745857 464.57189371 408.5174427 464.59065723 C396.58870192 464.5953794 384.65996113 464.6000599 372.73122025 464.60449409 C371.99673162 464.60476742 371.262243 464.60504074 370.50549715 464.60532234 C347.87058775 464.61369274 325.23567998 464.61837322 302.60076904 464.61920166 C301.8902033 464.61922803 301.17963755 464.61925439 300.44753952 464.61928156 C284.8495049 464.61982232 269.25147042 464.61944992 253.65343585 464.61824184 C248.07231565 464.61781621 242.49119543 464.61745109 236.91007522 464.6171124 C235.52162487 464.6170271 234.13317452 464.61693817 232.74472417 464.61684558 C210.61624978 464.61539651 188.48778863 464.622525 166.35931741 464.63384954 C143.45487873 464.64549531 120.5504603 464.64606713 97.64601983 464.63400612 C84.43732573 464.62736245 71.22869392 464.62904326 58.02000476 464.64259463 C49.20297821 464.65081292 40.38599852 464.64817583 31.56897581 464.63661937 C26.5414015 464.6303369 21.51394912 464.62882903 16.48638166 464.6404827 C11.91281394 464.65098676 7.33947194 464.64768939 2.76591644 464.63337817 C1.12156066 464.6306493 -0.5228131 464.63294544 -2.16715198 464.64088532 C-11.77031345 464.68409092 -20.74533737 464.56790318 -29.29261589 459.62947559 C-37.31692253 450.91737125 -37.19618963 442.08063316 -37.12176323 430.83908558 C-37.12824493 429.05652233 -37.13690121 427.27396589 -37.14753753 425.49142259 C-37.1703181 420.60542932 -37.16197893 415.71991315 -37.14839828 410.83390391 C-37.13913815 405.55975274 -37.15863784 400.28569589 -37.17437553 395.01157093 C-37.20045984 384.68416458 -37.19937549 374.35693232 -37.18833735 364.02950556 C-37.17977794 355.63543335 -37.1806105 347.2414115 -37.18813324 338.84733868 C-37.18918813 337.65248926 -37.19024302 336.45763984 -37.19132987 335.22658287 C-37.1935008 332.79922997 -37.19568758 330.37187709 -37.19789002 327.94452422 C-37.21731926 305.18395072 -37.20532253 282.42347489 -37.18310408 259.66290938 C-37.16485406 240.13680264 -37.17575588 220.61088499 -37.20741081 201.08479786 C-37.24417308 178.40702388 -37.26119523 155.729368 -37.24799854 133.05156416 C-37.24665744 130.63285221 -37.24534846 128.21414025 -37.24407196 125.79542828 C-37.24344129 124.60539465 -37.24281063 123.41536103 -37.24216085 122.18926578 C-37.23913374 113.8065837 -37.25039336 105.42399072 -37.26732254 97.04132748 C-37.28764684 86.82363165 -37.28677866 76.60620267 -37.25869014 66.38852078 C-37.24491702 61.17604748 -37.24073479 55.96404003 -37.26264 50.75158405 C-37.2824373 45.97763343 -37.27441818 41.20455879 -37.24444566 36.43066864 C-37.23844952 34.70601135 -37.24251916 32.9812827 -37.25780889 31.25668276 C-37.33630951 21.70414244 -37.04551489 13.85998711 -30.48011589 6.25447559 C-21.89204815 -1.2134094 -10.6860726 -0.03105363 0 0 Z M0.51988411 38.25447559 C0.51988411 166.29447559 0.51988411 294.33447559 0.51988411 426.25447559 C317.31988411 426.25447559 634.11988411 426.25447559 960.51988411 426.25447559 C960.51988411 298.21447559 960.51988411 170.17447559 960.51988411 38.25447559 C643.71988411 38.25447559 326.91988411 38.25447559 0.51988411 38.25447559 Z " fill="#362E2C" transform="translate(159.48011589050293,407.7455244064331)"/>
<path d="M0 0 C1.84850807 -0.01065742 1.84850807 -0.01065742 3.73435974 -0.02153015 C7.6888111 -0.03915721 11.64317361 -0.04647996 15.59765625 -0.046875 C16.27214058 -0.04702229 16.94662491 -0.04716957 17.64154816 -0.04732132 C37.45624248 -0.04331074 57.05292508 -0.0067936 76.66015625 3.203125 C77.38726807 3.32190002 78.11437988 3.44067505 78.86352539 3.56304932 C110.94526804 8.8433837 141.29620813 16.47843216 171.66015625 28.203125 C168.40039322 29.28971268 167.51685069 29.13101327 164.30078125 28.3125 C163.43066406 28.09722656 162.56054688 27.88195312 161.6640625 27.66015625 C160.75527344 27.42683594 159.84648438 27.19351563 158.91015625 26.953125 C144.67035181 23.35592478 130.44608129 20.60599793 115.84765625 19.015625 C115.05900177 18.92940887 114.27034729 18.84319275 113.45779419 18.75436401 C98.51496713 17.17813981 83.61589811 16.79418241 68.59765625 16.765625 C67.55741302 16.75963287 66.5171698 16.75364075 65.44540405 16.74746704 C23.65626385 16.58677612 -22.53435483 25.98798517 -53.33984375 56.203125 C-53.97664062 56.81542969 -54.6134375 57.42773438 -55.26953125 58.05859375 C-65.30245206 68.51512678 -69.82030006 82.28021281 -69.84399414 96.5078125 C-69.46059961 112.14195517 -62.76882915 126.50698444 -52.21484375 137.890625 C-36.33254065 152.96535337 -13.73207199 160.81989897 7.87890625 161.49316406 C26.43128195 162.08656726 45.43988568 163.64144519 59.63671875 176.82421875 C64.0691921 182.03536986 65.36222619 186.69554408 65.1171875 193.40234375 C63.91805804 200.75085508 58.99047153 205.23161883 53.41015625 209.765625 C34.33624262 223.29205137 11.34008156 227.91556053 -11.33984375 231.203125 C-12.58765625 231.3990625 -13.83546875 231.595 -15.12109375 231.796875 C-21.49145689 232.55339621 -27.93373005 232.44686318 -34.33984375 232.453125 C-35.41647781 232.45463562 -35.41647781 232.45463562 -36.51486206 232.45617676 C-100.87381924 232.39588983 -176.89953963 216.5455027 -225.33984375 171.203125 C-225.87222656 170.70780273 -226.40460938 170.21248047 -226.953125 169.70214844 C-243.97171207 153.70914448 -243.97171207 153.70914448 -244.54296875 143.61328125 C-245.04980844 116.09411757 -231.6843302 94.80589753 -213.33984375 75.203125 C-183.64754731 45.12184651 -141.33718661 26.59668426 -101.33984375 15.203125 C-100.60636719 14.98994629 -99.87289062 14.77676758 -99.1171875 14.55712891 C-67.25137045 5.37838812 -33.15987804 0.12703154 0 0 Z " fill="#B0B3B2" transform="translate(623.33984375,496.796875)"/>
<path d="M0 0 C1.70149457 -0.00239071 3.40298809 -0.00565646 5.10447949 -0.0097166 C9.79153653 -0.01834874 14.47851364 -0.0145051 19.16557193 -0.00866088 C24.26045412 -0.00449631 29.35532157 -0.01188927 34.4502002 -0.01781338 C43.38350833 -0.02658661 52.31679354 -0.02788351 61.2501049 -0.02431011 C74.53418485 -0.01901034 87.81824255 -0.02509108 101.10232007 -0.03339304 C125.51539727 -0.04823018 149.92846404 -0.05048126 174.3415439 -0.04807267 C177.8007752 -0.04773422 181.2600065 -0.04741212 184.7192378 -0.04710698 C185.74986259 -0.04701542 185.74986259 -0.04701542 186.80130807 -0.046922 C202.02665023 -0.04565022 217.25199098 -0.04825128 232.47733272 -0.05163305 C235.95359591 -0.05240379 239.42985911 -0.05314852 242.9061223 -0.05389806 C244.30128147 -0.05419975 245.69644064 -0.05450164 247.09159981 -0.05480371 C248.12893091 -0.05502822 248.12893091 -0.05502822 249.1872182 -0.05525728 C250.58603566 -0.05556081 251.98485312 -0.05586549 253.38367059 -0.05617132 C293.07689157 -0.06484497 332.77011131 -0.0694878 372.46333313 -0.06522369 C373.19839581 -0.06514564 373.93345849 -0.06506758 374.69079579 -0.06498716 C382.88758915 -0.06411435 391.08438249 -0.06318509 399.28117584 -0.06223653 C400.02123048 -0.06215102 400.76128512 -0.06206551 401.52376565 -0.06197741 C407.67313861 -0.06126659 407.67313861 -0.06126659 410.50229037 -0.06093518 C457.84230976 -0.05539897 505.18230965 -0.06294252 552.52232552 -0.08170605 C564.45106629 -0.08642822 576.37980708 -0.09110871 588.30854797 -0.09554291 C589.0430366 -0.09581623 589.77752522 -0.09608955 590.53427107 -0.09637116 C613.16918047 -0.10474155 635.80408824 -0.10942203 658.43899918 -0.11025047 C659.14956492 -0.11027684 659.86013066 -0.11030321 660.5922287 -0.11033037 C676.19026331 -0.11087114 691.7882978 -0.11049874 707.38633237 -0.10929066 C712.96745257 -0.10886503 718.54857279 -0.1084999 724.129693 -0.10816122 C725.51814335 -0.10807591 726.9065937 -0.10798698 728.29504404 -0.1078944 C750.42351844 -0.10644532 772.55197959 -0.11357381 794.68045081 -0.12489836 C817.58488948 -0.13654412 840.48930792 -0.13711594 863.39374839 -0.12505493 C876.60244249 -0.11841126 889.8110743 -0.12009207 903.01976345 -0.13364345 C911.83679001 -0.14186173 920.6537697 -0.13922464 929.47079241 -0.12766818 C934.49836672 -0.12138571 939.5258191 -0.11987784 944.55338655 -0.13153151 C949.12695428 -0.14203557 953.70029628 -0.1387382 958.27385177 -0.12442699 C959.91820756 -0.12169811 961.56258132 -0.12399426 963.2069202 -0.13193413 C972.81008167 -0.17513974 981.78510559 -0.05895199 990.33238411 4.87947559 C998.35669075 13.59157994 998.23595785 22.42831803 998.16153145 33.66986561 C998.16801314 35.45242886 998.17666943 37.23498529 998.18730575 39.01752859 C998.21008632 43.90352187 998.20174715 48.78903804 998.1881665 53.67504728 C998.17890637 58.94919845 998.19840606 64.22325529 998.21414375 69.49738026 C998.24022806 79.82478661 998.23914371 90.15201886 998.22810557 100.47944563 C998.21954616 108.87351784 998.22037872 117.26753969 998.22790146 125.66161251 C998.22948379 127.45388664 998.22948379 127.45388664 998.23109809 129.28236832 C998.23326902 131.70972122 998.2354558 134.1370741 998.23765824 136.56442697 C998.25708748 159.32500046 998.24509075 182.0854763 998.22287229 204.84604181 C998.20462228 224.37214855 998.2155241 243.8980662 998.24717903 263.42415333 C998.2839413 286.10192731 998.30096345 308.77958319 998.28776675 331.45738703 C998.28642566 333.87609897 998.28511668 336.29481093 998.28384018 338.71352291 C998.28320951 339.90355654 998.28257885 341.09359016 998.28192907 342.31968541 C998.27890196 350.70236749 998.29016158 359.08496046 998.30709076 367.46762371 C998.32741506 377.68531954 998.32654688 387.90274852 998.29845836 398.1204304 C998.28468524 403.33290371 998.28050301 408.54491116 998.30240822 413.75736713 C998.32220552 418.53131776 998.3141864 423.3043924 998.28421388 428.07828254 C998.27821774 429.80293983 998.28228738 431.52766849 998.29757711 433.25226843 C998.37607773 442.80480874 998.08528311 450.64896407 991.51988411 458.25447559 C982.93181637 465.72236059 971.72584082 464.54000482 961.03976822 464.50895119 C959.33827365 464.5113419 957.63678013 464.51460764 955.93528873 464.51866779 C951.24823169 464.52729993 946.56125458 464.52345629 941.87419629 464.51761206 C936.7793141 464.5134475 931.68444665 464.52084045 926.58956802 464.52676457 C917.65625989 464.5355378 908.72297468 464.5368347 899.78966331 464.5332613 C886.50558337 464.52796153 873.22152567 464.53404227 859.93744815 464.54234423 C835.52437094 464.55718137 811.11130418 464.55943244 786.69822432 464.55702385 C783.23899302 464.55668541 779.77976172 464.55636331 776.32053041 464.55605817 C775.28990563 464.5559666 775.28990563 464.5559666 774.23846015 464.55587319 C759.01311799 464.5546014 743.78777724 464.55720247 728.5624355 464.56058424 C725.08617231 464.56135498 721.60990911 464.5620997 718.13364591 464.56284925 C716.73848675 464.56315094 715.34332758 464.56345282 713.94816841 464.56375489 C712.91083731 464.56397941 712.91083731 464.56397941 711.85255002 464.56420847 C710.45373256 464.564512 709.05491509 464.56481668 707.65609763 464.56512251 C667.96287665 464.57379616 628.2696569 464.57843898 588.57643509 464.57417488 C587.84137241 464.57409682 587.10630973 464.57401877 586.34897243 464.57393835 C578.15217907 464.57306554 569.95538573 464.57213628 561.75859238 464.57118771 C561.01853774 464.5711022 560.2784831 464.57101669 559.51600256 464.57092859 C553.36662958 464.57021778 553.36662958 464.57021778 550.53747785 464.56988637 C503.19745846 464.56435015 455.85745857 464.57189371 408.5174427 464.59065723 C396.58870192 464.5953794 384.65996113 464.6000599 372.73122025 464.60449409 C371.99673162 464.60476742 371.262243 464.60504074 370.50549715 464.60532234 C347.87058775 464.61369274 325.23567998 464.61837322 302.60076904 464.61920166 C301.8902033 464.61922803 301.17963755 464.61925439 300.44753952 464.61928156 C284.8495049 464.61982232 269.25147042 464.61944992 253.65343585 464.61824184 C248.07231565 464.61781621 242.49119543 464.61745109 236.91007522 464.6171124 C235.52162487 464.6170271 234.13317452 464.61693817 232.74472417 464.61684558 C210.61624978 464.61539651 188.48778863 464.622525 166.35931741 464.63384954 C143.45487873 464.64549531 120.5504603 464.64606713 97.64601983 464.63400612 C84.43732573 464.62736245 71.22869392 464.62904326 58.02000476 464.64259463 C49.20297821 464.65081292 40.38599852 464.64817583 31.56897581 464.63661937 C26.5414015 464.6303369 21.51394912 464.62882903 16.48638166 464.6404827 C11.91281394 464.65098676 7.33947194 464.64768939 2.76591644 464.63337817 C1.12156066 464.6306493 -0.5228131 464.63294544 -2.16715198 464.64088532 C-11.77031345 464.68409092 -20.74533737 464.56790318 -29.29261589 459.62947559 C-37.31692253 450.91737125 -37.19618963 442.08063316 -37.12176323 430.83908558 C-37.12824493 429.05652233 -37.13690121 427.27396589 -37.14753753 425.49142259 C-37.1703181 420.60542932 -37.16197893 415.71991315 -37.14839828 410.83390391 C-37.13913815 405.55975274 -37.15863784 400.28569589 -37.17437553 395.01157093 C-37.20045984 384.68416458 -37.19937549 374.35693232 -37.18833735 364.02950556 C-37.17977794 355.63543335 -37.1806105 347.2414115 -37.18813324 338.84733868 C-37.18918813 337.65248926 -37.19024302 336.45763984 -37.19132987 335.22658287 C-37.1935008 332.79922997 -37.19568758 330.37187709 -37.19789002 327.94452422 C-37.21731926 305.18395072 -37.20532253 282.42347489 -37.18310408 259.66290938 C-37.16485406 240.13680264 -37.17575588 220.61088499 -37.20741081 201.08479786 C-37.24417308 178.40702388 -37.26119523 155.729368 -37.24799854 133.05156416 C-37.24665744 130.63285221 -37.24534846 128.21414025 -37.24407196 125.79542828 C-37.24344129 124.60539465 -37.24281063 123.41536103 -37.24216085 122.18926578 C-37.23913374 113.8065837 -37.25039336 105.42399072 -37.26732254 97.04132748 C-37.28764684 86.82363165 -37.28677866 76.60620267 -37.25869014 66.38852078 C-37.24491702 61.17604748 -37.24073479 55.96404003 -37.26264 50.75158405 C-37.2824373 45.97763343 -37.27441818 41.20455879 -37.24444566 36.43066864 C-37.23844952 34.70601135 -37.24251916 32.9812827 -37.25780889 31.25668276 C-37.33630951 21.70414244 -37.04551489 13.85998711 -30.48011589 6.25447559 C-21.89204815 -1.2134094 -10.6860726 -0.03105363 0 0 Z M-29.48011589 13.25447559 C-31.70023333 17.07994047 -31.73258026 20.00704093 -31.7373848 24.4453764 C-31.74089087 25.17419488 -31.74439695 25.90301336 -31.74800926 26.65391725 C-31.75735291 29.10921396 -31.75239237 31.56427503 -31.74754143 34.01958179 C-31.75127619 35.79242399 -31.75587702 37.56526454 -31.76127207 39.33810246 C-31.77353889 44.22017691 -31.77323729 49.10218302 -31.77088332 53.98426938 C-31.77047609 59.24545082 -31.78150534 64.50661008 -31.79099846 69.76778126 C-31.80762937 80.0791091 -31.81310894 90.39041407 -31.81422321 100.7017542 C-31.81517266 109.08071157 -31.81927773 117.45966139 -31.82562447 125.83861637 C-31.84324222 149.57973085 -31.85246245 173.32082722 -31.85096352 197.06194828 C-31.85088361 198.34251843 -31.85080369 199.62308857 -31.85072136 200.94246387 C-31.8506396 202.22459236 -31.85055784 203.50672084 -31.8504736 204.8277017 C-31.84966044 225.61330769 -31.86880418 246.39884126 -31.89699809 267.18442629 C-31.92570017 288.51244112 -31.93953988 309.8404206 -31.93781054 331.16845524 C-31.93714573 343.14837108 -31.94267766 355.12821099 -31.96416664 367.10810947 C-31.9823432 377.30695016 -31.9867548 387.5056805 -31.97314779 397.70453034 C-31.96660044 402.91031371 -31.96656455 408.11588516 -31.98385429 413.3216486 C-31.99951203 418.08492182 -31.99679646 422.84781382 -31.97928603 427.61107732 C-31.97619998 429.33649218 -31.97990849 431.06193498 -31.99100618 432.7873169 C-32.00507514 435.12930656 -31.99458346 437.46994932 -31.97789383 439.81189251 C-31.97832857 441.11368383 -31.9787633 442.41547516 -31.97921121 443.7567147 C-31.1217253 449.76614926 -27.8041915 453.43767312 -23.17375336 457.19975585 C-20.29086054 458.99508928 -17.65125038 458.87976308 -14.31056356 458.88007075 C-13.60712983 458.8869581 -12.90369609 458.89384545 -12.17894618 458.90094152 C-9.81686347 458.91795217 -7.45641884 458.8993056 -5.09436607 458.88088799 C-3.37863716 458.88579978 -1.66291337 458.89290307 0.05279845 458.90200195 C4.78880716 458.92071099 9.5243034 458.90811764 14.26029786 458.890612 C19.40456784 458.87706779 24.54876292 458.89242797 29.69302607 458.90416282 C38.71603619 458.92071388 47.73889381 458.91857993 56.76190567 458.90433598 C70.17915493 458.8832129 83.59628201 458.89058706 97.01353602 458.90371119 C119.58317588 458.92489496 142.15274766 458.92225613 164.7223835 458.90538692 C187.07961944 458.88869577 209.43682702 458.88058445 231.79406929 458.8846159 C233.19732448 458.88485626 234.60057966 458.88509545 236.00383485 458.88533348 C241.64272768 458.88630222 247.2816205 458.88732464 252.9205133 458.88841858 C268.68422003 458.89144745 284.44792667 458.89277031 300.21163368 458.89278793 C300.92951626 458.8927892 301.64739883 458.89279046 302.38703542 458.89279177 C325.26692175 458.89271164 348.14679929 458.8851571 371.0266819 458.87238121 C372.14005478 458.87176068 372.14005478 458.87176068 373.27592004 458.87112762 C385.33007487 458.86438379 397.38422945 458.85723021 409.43838403 458.85004838 C457.24860699 458.82159007 505.05877634 458.8156221 552.8690052 458.83089161 C555.89020501 458.83185104 558.91140481 458.83280805 561.93260461 458.83376432 C563.05307168 458.83411902 563.05307168 458.83411902 564.19617444 458.83448089 C572.46847837 458.83709365 580.74078233 458.83962622 589.01308632 458.842062 C590.12579991 458.84239172 590.12579991 458.84239172 591.26099256 458.8427281 C614.11670779 458.84944936 636.97241862 458.85117124 659.82813454 458.84730148 C660.90417083 458.8471193 660.90417083 458.8471193 662.00194522 458.84693343 C677.74804576 458.84420549 693.49414578 458.84014259 709.24024568 458.83488778 C714.87414182 458.83300936 720.50803798 458.83118292 726.14193415 458.82936224 C728.24320564 458.82867799 730.34447712 458.82797645 732.4457486 458.82727472 C747.82191099 458.82221775 763.19806746 458.81989863 778.57423019 458.82470918 C779.26750344 458.82492586 779.96077668 458.82514254 780.6750582 458.82536578 C784.1657638 458.82647464 787.65646939 458.82763362 791.14717497 458.82881419 C816.35955779 458.83733579 841.57187932 458.83315935 866.78425562 458.80604709 C880.12709958 458.79209118 893.46983879 458.78917412 906.8126845 458.8019818 C915.71410739 458.80941737 924.6154417 458.80241271 933.51684729 458.78342368 C938.59595887 458.77299336 943.67485893 458.76898931 948.7539683 458.78240222 C953.3696842 458.79445713 957.98499404 458.78828641 962.60067443 458.76724213 C964.26475035 458.7629013 965.9288604 458.76533408 967.59291288 458.77517655 C969.84588132 458.78753333 972.09743472 458.77538567 974.35033178 458.75702292 C975.59964199 458.75652814 976.8489522 458.75603337 978.13612029 458.7555236 C983.34613935 457.98405437 986.40912477 455.51533755 989.83238411 451.62947559 C992.69075232 447.606587 992.6473055 445.26040083 992.65410519 440.30967045 C992.65645742 439.58315965 992.65880965 438.85664886 992.66123316 438.10812259 C992.6679444 435.64869315 992.6674643 433.18931628 992.66705513 430.72987843 C992.67035243 428.95876349 992.67407771 427.18764931 992.67819661 425.41653609 C992.68823991 420.5299606 992.69193714 415.6433974 992.69458592 410.75681305 C992.69848207 405.4942386 992.70806085 400.23167394 992.71679878 394.96910572 C992.73658247 382.25048418 992.7466317 369.53186181 992.75552657 356.81322873 C992.75990625 350.82884839 992.76527388 344.84446894 992.77051544 338.8600893 C992.78752943 318.97538531 992.80202471 299.09068187 992.80926418 279.20597172 C992.81117418 274.04310321 992.8130945 268.88023471 992.81505013 263.71736622 C992.81553387 262.43410673 992.81601761 261.15084725 992.816516 259.82870111 C992.82482038 239.03003853 992.85016342 218.23143339 992.8826308 197.43279591 C992.91566796 176.09580831 992.9337099 154.75884994 992.93690842 133.42183661 C992.9390766 121.43517894 992.9478701 109.44860504 992.9733696 97.46197224 C992.99503094 87.25576933 993.00314956 77.04967052 992.99340282 66.84344724 C992.98884488 61.63362312 992.99083084 56.424014 993.01016426 51.21421909 C993.02770231 46.44717225 993.02687474 41.68049872 993.01126697 36.91344842 C993.0088766 35.18662507 993.01328789 33.45977649 993.02509562 31.73299184 C993.04013358 29.38908617 993.03059956 27.04651718 993.01486874 24.7026453 C993.01584554 23.39976983 993.01682235 22.09689436 993.01782876 20.75453782 C992.26488716 15.4620973 989.83966409 12.41713891 985.89488411 8.94197559 C981.94605059 6.13622546 979.70285642 6.12770011 974.8494271 6.12222242 C974.15135417 6.12007472 973.45328124 6.11792702 972.73405459 6.11571424 C970.36665736 6.10967469 967.99931621 6.11082397 965.63191223 6.11187458 C963.92145721 6.10901395 962.21100286 6.1057179 960.50054944 6.10202301 C955.76067684 6.09308462 951.02081784 6.0904536 946.28093786 6.08879987 C941.13923746 6.08594023 935.9975461 6.07738072 930.85585129 6.06956148 C920.64009512 6.05496793 910.42434058 6.04587672 900.20857695 6.03847278 C891.71217102 6.03215709 883.21577013 6.02350049 874.71936798 6.01331425 C873.49531329 6.01184725 872.27125859 6.01038025 871.01011133 6.00886879 C868.51389794 6.00586828 866.01768457 6.00286403 863.52147119 5.99985614 C831.85215551 5.96211854 800.18283347 5.93730018 768.51350389 5.91515236 C763.61894064 5.91172927 758.72437744 5.90825068 753.82981426 5.90474105 C699.78467093 5.86604196 645.7395249 5.83244196 591.69437199 5.81057239 C579.64593076 5.80567945 567.5974896 5.80061661 555.54904847 5.79548006 C553.28006394 5.79451442 551.0110794 5.7935563 548.74209485 5.79259821 C500.91947237 5.77230284 453.09691422 5.72780752 405.27432504 5.66866407 C370.37506264 5.62551436 335.47581427 5.58572889 300.57652664 5.5708437 C299.85900771 5.57053607 299.14148878 5.57022844 298.40222684 5.5699115 C282.65183531 5.56322977 266.90144378 5.55849409 251.15105111 5.55558706 C244.81389332 5.55438744 238.47673559 5.55293068 232.13957787 5.55139637 C231.09921662 5.55115494 231.09921662 5.55115494 230.03783797 5.55090864 C207.68398068 5.54560127 185.33021492 5.5185384 162.9763918 5.48023647 C139.83776167 5.44070978 116.69923988 5.42609336 93.56056814 5.44045275 C80.21362106 5.4479696 66.86702315 5.43587152 53.52013163 5.39602959 C44.61330531 5.37135637 35.70671551 5.37193045 26.79988122 5.39332873 C21.71910462 5.40480672 16.6389946 5.40504447 11.55828141 5.37461454 C6.93855809 5.34716334 2.32003322 5.35177154 -2.29966095 5.38225444 C-3.96286866 5.38755917 -5.62616528 5.38105739 -7.28926618 5.36147688 C-16.38993219 5.26120532 -23.74750486 5.28273824 -29.48011589 13.25447559 Z " fill="#F4F3F3" transform="translate(159.48011589050293,407.7455244064331)"/>
<path d="M0 0 C0.33 0 0.66 0 1 0 C1 141.9 1 283.8 1 430 C0.67 430 0.34 430 0 430 C0 288.1 0 146.2 0 0 Z " fill="#FEFEFE" transform="translate(121,425)"/>
<path d="M0 0 C0.33 0 0.66 0 1 0 C1 141.9 1 283.8 1 430 C0.67 430 0.34 430 0 430 C0 288.1 0 146.2 0 0 Z " fill="#FEFEFE" transform="translate(1158,425)"/>
<path d="M0 0 C9.29820555 2.24575304 18.09948344 5.54923511 27 9 C23.66004969 10.11331677 22.61728033 9.87224462 19.2890625 9.0390625 C18.37382813 8.81476562 17.45859375 8.59046875 16.515625 8.359375 C15.08476563 7.99585938 15.08476563 7.99585938 13.625 7.625 C11.74235314 7.15818565 9.85954554 6.69201898 7.9765625 6.2265625 C6.72480225 5.91066162 6.72480225 5.91066162 5.44775391 5.58837891 C2.97540411 4.99408776 0.49629803 4.48277724 -2 4 C-1.34 2.68 -0.68 1.36 0 0 Z " fill="#B7B9B8" transform="translate(768,516)"/>
<path d="M0 0 C4 1 4 1 4 1 Z " fill="#FFFFFF" transform="translate(1138,872)"/>
<path d="M0 0 C4 1 4 1 4 1 Z " fill="#FFFFFF" transform="translate(138,872)"/>
<path d="M0 0 C4 1 4 1 4 1 Z " fill="#FFFFFF" transform="translate(1138,407)"/>
<path d="M0 0 C4 1 4 1 4 1 Z " fill="#FFFFFF" transform="translate(138,407)"/>
<path d="M0 0 C2 1 2 1 2 1 Z " fill="#FEFEFE" transform="translate(1143,871)"/>
<path d="M0 0 C2 1 2 1 2 1 Z " fill="#FFFFFF" transform="translate(135,871)"/>
<path d="M0 0 C2 1 2 1 2 1 Z " fill="#FEFEFE" transform="translate(1145,870)"/>
<path d="M0 0 C2 1 2 1 2 1 Z " fill="#FFFFFF" transform="translate(133,870)"/>
<path d="M0 0 C2 1 2 1 2 1 Z " fill="#FFFFFF" transform="translate(1148,868)"/>
<path d="M0 0 C2 1 2 1 2 1 Z " fill="#FFFFFF" transform="translate(130,868)"/>
<path d="" fill="#FEFEFE" transform="translate(0,0)"/>
<path d="" fill="#FEFEFE" transform="translate(0,0)"/>
<path d="" fill="#FEFEFE" transform="translate(0,0)"/>
<path d="" fill="#FEFEFE" transform="translate(0,0)"/>
<path d="M0 0 C2 1 2 1 2 1 Z " fill="#FFFFFF" transform="translate(1148,411)"/>
<path d="M0 0 C2 1 2 1 2 1 Z " fill="#FEFEFE" transform="translate(130,411)"/>
<path d="M0 0 C2 1 2 1 2 1 Z " fill="#FEFEFE" transform="translate(1145,409)"/>
<path d="M0 0 C2 1 2 1 2 1 Z " fill="#FFFFFF" transform="translate(133,409)"/>
<path d="M0 0 C2 1 2 1 2 1 Z " fill="#FFFFFF" transform="translate(1143,408)"/>
<path d="M0 0 C2 1 2 1 2 1 Z " fill="#FFFFFF" transform="translate(135,408)"/>
<path d="" fill="#FEFEFE" transform="translate(0,0)"/>
<path d="" fill="#FFFFFF" transform="translate(0,0)"/>
<path d="" fill="#FFFFFF" transform="translate(0,0)"/>
<path d="" fill="#FFFFFF" transform="translate(0,0)"/>
<path d="" fill="#FFFFFF" transform="translate(0,0)"/>
<path d="" fill="#FFFFFF" transform="translate(0,0)"/>
<path d="" fill="#FFFFFF" transform="translate(0,0)"/>
<path d="" fill="#FEFEFE" transform="translate(0,0)"/>
<path d="" fill="#FFFFFF" transform="translate(0,0)"/>
<path d="" fill="#FFFFFF" transform="translate(0,0)"/>
<path d="" fill="#FFFFFF" transform="translate(0,0)"/>
<path d="" fill="#FFFFFF" transform="translate(0,0)"/>
<path d="" fill="#FFFFFF" transform="translate(0,0)"/>
<path d="" fill="#FFFFFF" transform="translate(0,0)"/>
<path d="" fill="#FFFFFF" transform="translate(0,0)"/>
<path d="" fill="#FFFFFF" transform="translate(0,0)"/>
<path d="" fill="#FFFFFF" transform="translate(0,0)"/>
<path d="" fill="#FFFFFF" transform="translate(0,0)"/>
<path d="" fill="#FFFFFF" transform="translate(0,0)"/>
<path d="" fill="#FFFFFF" transform="translate(0,0)"/>
<path d="" fill="#FFFFFF" transform="translate(0,0)"/>
<path d="" fill="#FFFFFF" transform="translate(0,0)"/>
<path d="" fill="#FFFFFF" transform="translate(0,0)"/>
<path d="" fill="#FFFFFF" transform="translate(0,0)"/>
<path d="" fill="#FEFEFE" transform="translate(0,0)"/>
<path d="" fill="#FFFFFF" transform="translate(0,0)"/>
<path d="" fill="#FFFFFF" transform="translate(0,0)"/>
<path d="" fill="#FFFFFF" transform="translate(0,0)"/>
<path d="" fill="#FFFFFF" transform="translate(0,0)"/>
<path d="" fill="#FFFFFF" transform="translate(0,0)"/>
<path d="" fill="#FEFEFE" transform="translate(0,0)"/>
<path d="" fill="#FFFFFF" transform="translate(0,0)"/>
</svg>
